<svg width="20" height="20" viewBox="0 0 20 20" fill="none" xmlns="http://www.w3.org/2000/svg">
     <path
          d="M7.92868 2.42952C7.41722 2.86538 6.78129 3.12879 6.11143 3.18225C4.54825 3.30699 3.30695 4.54829 3.18221 6.11147C3.12875 6.78133 2.86534 7.41726 2.42948 7.92872C1.41234 9.12227 1.41234 10.8777 2.42948 12.0713C2.86534 12.5827 3.12875 13.2187 3.18221 13.8885C3.30695 15.4517 4.54825 16.693 6.11143 16.8178C6.78129 16.8712 7.41722 17.1346 7.92868 17.5705C9.12223 18.5876 10.8777 18.5876 12.0712 17.5705C12.5827 17.1346 13.2186 16.8712 13.8885 16.8178C15.4517 16.693 16.693 15.4517 16.8177 13.8885C16.8712 13.2187 17.1346 12.5827 17.5704 12.0713C18.5876 10.8777 18.5876 9.12227 17.5704 7.92872C17.1346 7.41726 16.8712 6.78133 16.8177 6.11147C16.693 4.54829 15.4517 3.30699 13.8885 3.18225C13.2186 3.12879 12.5827 2.86538 12.0712 2.42952C10.8777 1.41238 9.12223 1.41238 7.92868 2.42952Z"
          fill="#24BE67" />
     <path d="M7.5 10.4167L9.16667 12.0833L12.9167 8.33333" stroke="white" stroke-width="1.66667"
          stroke-linecap="round" stroke-linejoin="round" />
</svg>